<mxfile host="65bd71144e">
    <diagram id="qO6vdMM1UiQfBXjDqgoR" name="Page-1">
        <mxGraphModel dx="1138" dy="580" grid="1" gridSize="10" guides="1" tooltips="1" connect="1" arrows="1" fold="1" page="1" pageScale="1" pageWidth="850" pageHeight="1100" math="0" shadow="0">
            <root>
                <mxCell id="0"/>
                <mxCell id="1" parent="0"/>
                <mxCell id="6" value="Default VPC (vpc-defa90b5)" style="outlineConnect=0;gradientColor=none;html=1;whiteSpace=wrap;fontSize=12;fontStyle=0;shape=mxgraph.aws4.group;grIcon=mxgraph.aws4.group_vpc;strokeColor=#879196;fillColor=none;verticalAlign=top;align=left;spacingLeft=30;fontColor=#879196;dashed=0;" vertex="1" parent="1">
                    <mxGeometry x="40" y="70" width="720" height="520" as="geometry"/>
                </mxCell>
                <mxCell id="39" value="" style="group" vertex="1" connectable="0" parent="1">
                    <mxGeometry x="132.5" y="290" width="255" height="240" as="geometry"/>
                </mxCell>
                <mxCell id="8" value="" style="rounded=1;arcSize=10;dashed=1;strokeColor=#F59D56;fillColor=none;gradientColor=none;dashPattern=8 4;strokeWidth=2;" vertex="1" parent="39">
                    <mxGeometry width="255" height="240" as="geometry"/>
                </mxCell>
                <mxCell id="37" value="us-east-2b" style="text;html=1;strokeColor=none;fillColor=none;align=center;verticalAlign=middle;whiteSpace=wrap;rounded=0;" vertex="1" parent="39">
                    <mxGeometry x="12.5" width="70" height="20" as="geometry"/>
                </mxCell>
                <mxCell id="23" value="" style="group" vertex="1" connectable="0" parent="1">
                    <mxGeometry x="195" y="320" width="655.0900000000001" height="286.60999999999996" as="geometry"/>
                </mxCell>
                <mxCell id="31" value="" style="group" vertex="1" connectable="0" parent="23">
                    <mxGeometry x="-120" y="-100" width="650" height="340" as="geometry"/>
                </mxCell>
                <mxCell id="40" value="" style="group" vertex="1" connectable="0" parent="31">
                    <mxGeometry x="340" y="73.36000000000001" width="255" height="240" as="geometry"/>
                </mxCell>
                <mxCell id="41" value="" style="rounded=1;arcSize=10;dashed=1;strokeColor=#F59D56;fillColor=none;gradientColor=none;dashPattern=8 4;strokeWidth=2;" vertex="1" parent="40">
                    <mxGeometry width="255" height="240" as="geometry"/>
                </mxCell>
                <mxCell id="42" value="us-east-2c" style="text;html=1;strokeColor=none;fillColor=none;align=center;verticalAlign=middle;whiteSpace=wrap;rounded=0;" vertex="1" parent="40">
                    <mxGeometry x="12.5" width="70" height="20" as="geometry"/>
                </mxCell>
                <mxCell id="10" value="" style="rounded=1;arcSize=10;dashed=1;fillColor=none;gradientColor=none;dashPattern=8 3 1 3;strokeWidth=2;" vertex="1" parent="31">
                    <mxGeometry x="10" y="46.72" width="630" height="293.28" as="geometry"/>
                </mxCell>
                <mxCell id="13" value="Target group &lt;br&gt;asg-capstone" style="text;html=1;strokeColor=none;fillColor=none;align=center;verticalAlign=middle;whiteSpace=wrap;rounded=0;" vertex="1" parent="31">
                    <mxGeometry x="18.309859154929573" width="165.9826721386229" height="27.93120020685291" as="geometry"/>
                </mxCell>
                <mxCell id="24" value="" style="group" vertex="1" connectable="0" parent="31">
                    <mxGeometry x="403.48636363636365" y="100" width="130" height="160" as="geometry"/>
                </mxCell>
                <mxCell id="25" value="" style="group" vertex="1" connectable="0" parent="24">
                    <mxGeometry width="130" height="160" as="geometry"/>
                </mxCell>
                <mxCell id="26" value="" style="group" vertex="1" connectable="0" parent="25">
                    <mxGeometry y="40" width="130" height="120" as="geometry"/>
                </mxCell>
                <mxCell id="27" value="" style="rounded=1;arcSize=10;dashed=1;strokeColor=#ff0000;fillColor=none;gradientColor=none;dashPattern=8 4;strokeWidth=2;" vertex="1" parent="26">
                    <mxGeometry y="-10" width="130" height="130" as="geometry"/>
                </mxCell>
                <mxCell id="28" value="Security Group&lt;br&gt;Capstone instance" style="text;html=1;strokeColor=none;fillColor=none;align=center;verticalAlign=middle;whiteSpace=wrap;rounded=0;" vertex="1" parent="25">
                    <mxGeometry x="3.4272727272726886" width="121.17575757575759" height="12.63" as="geometry"/>
                </mxCell>
                <mxCell id="29" value="Capstone Instance 2&lt;br&gt;( HTTP Service )" style="outlineConnect=0;dashed=0;verticalLabelPosition=bottom;verticalAlign=top;align=center;html=1;shape=mxgraph.aws3.instance;fillColor=#F58534;gradientColor=none;" vertex="1" parent="24">
                    <mxGeometry x="34.46969696969697" y="50" width="59.09090909090909" height="63" as="geometry"/>
                </mxCell>
                <mxCell id="22" value="" style="group" vertex="1" connectable="0" parent="23">
                    <mxGeometry width="130" height="160" as="geometry"/>
                </mxCell>
                <mxCell id="17" value="" style="group" vertex="1" connectable="0" parent="22">
                    <mxGeometry y="40" width="130" height="120" as="geometry"/>
                </mxCell>
                <mxCell id="18" value="" style="rounded=1;arcSize=10;dashed=1;strokeColor=#ff0000;fillColor=none;gradientColor=none;dashPattern=8 4;strokeWidth=2;" vertex="1" parent="17">
                    <mxGeometry y="-10" width="130" height="130" as="geometry"/>
                </mxCell>
                <mxCell id="19" value="Security Group&lt;br&gt;Capstone instance" style="text;html=1;strokeColor=none;fillColor=none;align=center;verticalAlign=middle;whiteSpace=wrap;rounded=0;" vertex="1" parent="22">
                    <mxGeometry x="3.4799999999999613" width="123.04" height="12.63" as="geometry"/>
                </mxCell>
                <mxCell id="5" value="Capstone Instance 1&lt;br&gt;( HTTP Service )" style="outlineConnect=0;dashed=0;verticalLabelPosition=bottom;verticalAlign=top;align=center;html=1;shape=mxgraph.aws3.instance;fillColor=#F58534;gradientColor=none;" vertex="1" parent="23">
                    <mxGeometry x="35" y="50" width="60" height="63" as="geometry"/>
                </mxCell>
                <mxCell id="34" style="edgeStyle=orthogonalEdgeStyle;rounded=0;orthogonalLoop=1;jettySize=auto;html=1;" edge="1" parent="1" target="33">
                    <mxGeometry relative="1" as="geometry">
                        <mxPoint x="384.6600000000001" y="122" as="sourcePoint"/>
                        <mxPoint x="669.9970000000001" y="90.5" as="targetPoint"/>
                        <Array as="points">
                            <mxPoint x="560" y="122"/>
                            <mxPoint x="560" y="86"/>
                        </Array>
                    </mxGeometry>
                </mxCell>
                <mxCell id="36" value="&lt;span style=&quot;color: rgb(68 , 68 , 68) ; font-family: &amp;#34;helvetica neue&amp;#34; , &amp;#34;roboto&amp;#34; , &amp;#34;arial&amp;#34; , sans-serif ; font-size: 14px ; background-color: rgb(255 , 255 , 255)&quot;&gt;asg-capstone-375751341.us-east-2.elb.amazonaws.com&lt;/span&gt;" style="edgeLabel;html=1;align=center;verticalAlign=middle;resizable=0;points=[];" vertex="1" connectable="0" parent="34">
                    <mxGeometry x="0.1937" relative="1" as="geometry">
                        <mxPoint x="81" y="45" as="offset"/>
                    </mxGeometry>
                </mxCell>
                <mxCell id="2" value="Application Load Balancer&lt;br&gt;asg-capstone" style="outlineConnect=0;dashed=0;verticalLabelPosition=bottom;verticalAlign=top;align=center;html=1;shape=mxgraph.aws3.elastic_load_balancing;fillColor=#F58534;gradientColor=none;" vertex="1" parent="1">
                    <mxGeometry x="362.68" y="80" width="76.5" height="93" as="geometry"/>
                </mxCell>
                <mxCell id="32" style="edgeStyle=orthogonalEdgeStyle;rounded=0;orthogonalLoop=1;jettySize=auto;html=1;entryX=0;entryY=0.5;entryDx=0;entryDy=0;entryPerimeter=0;" edge="1" parent="1" source="10" target="2">
                    <mxGeometry relative="1" as="geometry">
                        <Array as="points">
                            <mxPoint x="280" y="127"/>
                        </Array>
                    </mxGeometry>
                </mxCell>
                <mxCell id="33" value="" style="outlineConnect=0;dashed=0;verticalLabelPosition=bottom;verticalAlign=top;align=center;html=1;shape=mxgraph.aws3.internet_gateway;fillColor=#F58534;gradientColor=none;" vertex="1" parent="1">
                    <mxGeometry x="725" y="50" width="69" height="72" as="geometry"/>
                </mxCell>
                <mxCell id="48" value="API Infrastructure" style="text;strokeColor=none;fillColor=none;html=1;fontSize=24;fontStyle=1;verticalAlign=middle;align=center;" vertex="1" parent="1">
                    <mxGeometry x="35" y="30" width="210" height="40" as="geometry"/>
                </mxCell>
            </root>
        </mxGraphModel>
    </diagram>
</mxfile>